<svg width="149" height="71" viewBox="0 0 149 71" fill="none" xmlns="http://www.w3.org/2000/svg">
<path d="M73.8781 8.78409C73.7291 9.12685 73.6794 15.4434 73.7291 22.8372L73.8781 36.3027L75.0204 36.4496L76.1131 36.5965V22.3965C76.1131 8.39236 76.1131 8.14754 75.1197 8.14754C74.5734 8.14754 73.9774 8.44133 73.8781 8.78409Z" fill="black"/>
<path d="M90.268 14.611C90.119 14.9537 88.2317 20.0951 86.0463 26.02C83.861 31.9448 82.073 37.0862 82.073 37.38C82.073 37.7227 82.5697 38.0165 83.2153 38.0165C84.2087 38.0165 84.7053 36.8903 88.4303 26.8034C90.6653 20.6337 92.503 15.1986 92.503 14.8068C92.503 13.8765 90.6157 13.7296 90.268 14.611Z" fill="black"/>
<path d="M57.7363 15.5903C57.786 15.9331 59.5243 21.0744 61.66 26.9993C64.938 36.0579 65.7327 37.8206 66.6267 37.9186C67.3717 38.0165 67.6697 37.8206 67.6697 37.1841C67.6697 36.6944 65.981 31.5041 63.8453 25.6772C60.3687 16.08 59.872 15.0027 58.8787 15.0027C58.233 15.0027 57.7363 15.2965 57.7363 15.5903Z" fill="black"/>
<path d="M39.2105 17.3041C38.3662 18.1365 39.1609 19.5075 42.7369 23.5717C44.8229 26.02 49.0942 30.9655 52.2232 34.5889C59.7725 43.4027 59.0275 42.7172 59.9215 41.9337C60.3685 41.591 60.7162 41.1503 60.7162 40.9055C60.7162 40.7096 58.5309 38.0165 55.8489 34.9806C53.2165 31.9448 48.5975 26.6565 45.6672 23.18C42.6872 19.7524 40.1045 16.9613 39.9059 16.9613C39.7072 16.9613 39.3595 17.1082 39.2105 17.3041Z" fill="black"/>
<path d="M104.026 23.9144C100.748 27.7827 96.1286 33.12 93.7943 35.8131C91.46 38.5062 89.5726 41.0524 89.672 41.4441C90.0196 43.3537 91.5593 42.2275 96.079 36.9393C98.6616 33.9034 103.181 28.6641 106.112 25.2855C111.178 19.4586 112.171 17.6468 110.582 17.1082C110.284 17.0103 107.353 20.0951 104.026 23.9144Z" fill="black"/>
<path d="M30.7674 31.0144C30.1218 31.651 30.4198 33.071 31.3634 33.5606C31.8601 33.8544 37.1248 37.38 43.0848 41.4441C53.3161 48.4951 55.6008 49.6213 55.1538 47.4669C55.0048 46.7813 32.2078 30.6717 31.3634 30.6717C31.2144 30.6717 30.9164 30.8186 30.7674 31.0144Z" fill="black"/>
<path d="M107.304 39.8772C95.483 46.3406 93.6453 47.6627 95.632 48.4462C96.4267 48.74 121.558 35.2744 121.508 34.5889C121.359 33.3158 121.26 33.12 120.465 33.1689C119.969 33.2179 114.058 36.2048 107.304 39.8772Z" fill="black"/>
<path d="M70.4014 40.6606C69.0604 41.0034 67.0737 41.64 66.0804 42.0806C63.4481 43.2069 59.3257 47.1241 57.8854 49.9641C56.4451 52.7062 55.0544 58.7779 55.5014 60.3937L55.7497 61.52L42.2404 61.6179C29.0787 61.7648 28.6814 61.8137 28.6814 62.7441C28.6814 63.7234 29.0291 63.7234 76.1131 63.7234C123.197 63.7234 123.545 63.7234 123.545 62.7441C123.545 61.8137 123.147 61.7648 109.042 61.6179L94.4897 61.52V58.8758C94.4897 51.0903 89.0761 43.5496 81.8247 41.1993C78.4474 40.122 73.3814 39.8772 70.4014 40.6606ZM82.5201 44.1372C87.3377 46.2917 91.0627 51.1393 91.7581 56.1827C91.9071 57.3579 92.1554 59.0717 92.3044 59.9531L92.5527 61.52H75.1197H57.7364V59.6593C57.7364 56.1337 59.4747 51.3841 61.9084 48.1524C65.7824 42.962 75.5171 41.0524 82.5201 44.1372Z" fill="black"/>
<path d="M18.3507 48.5931C17.6057 49.3765 18.0527 50.7475 19.1453 50.9434C19.7413 51.0903 27.241 52.4613 35.7837 53.9793C51.4287 56.7703 52.869 56.8682 52.124 55.0075C51.975 54.6158 50.8823 54.1751 49.6903 53.9793C47.1077 53.5875 21.1817 48.8379 19.7413 48.4951C19.195 48.3482 18.5493 48.3972 18.3507 48.5931Z" fill="black"/>
<path d="M113.611 51.7269C99.2578 54.322 98.2148 54.5669 98.0658 55.5462C97.9168 56.3786 98.1651 56.6234 99.1088 56.6234C101.145 56.6234 130.448 51.2372 130.945 50.7475C131.591 50.111 130.895 48.7889 129.902 48.8379C129.405 48.8869 122.104 50.16 113.611 51.7269Z" fill="black"/>
</svg>
